<?xml version="1.0" encoding="UTF-8"?>
<svg version="1.1" xmlns="http://www.w3.org/2000/svg" width="1198" height="495">
<path d="M0 0 C0.6439975 -0.01620895 1.287995 -0.03241791 1.95150757 -0.04911804 C7.90330645 -0.18951714 13.85660737 -0.26747304 19.80970287 -0.32803631 C23.81038499 -0.36900181 27.80861786 -0.42931611 31.80810547 -0.53710938 C35.6739535 -0.6409549 39.53761838 -0.69545122 43.40477943 -0.71549416 C44.87659782 -0.73141455 46.34833726 -0.76461974 47.81935692 -0.81564903 C52.29810171 -0.9635383 56.47635485 -0.94972152 60.83129883 0.2722168 C63.89042461 3.20704274 65.29264023 6.36854958 66.83129883 10.2722168 C67.46621683 11.46214312 68.11697539 12.64390474 68.79077148 13.81225586 C69.35328613 14.87669922 69.91580078 15.94114258 70.49536133 17.0378418 C70.80928833 17.62960205 71.12321533 18.2213623 71.44665527 18.83105469 C72.11051689 20.08286127 72.77324585 21.33526914 73.43487549 22.58825684 C75.19643722 25.92359265 76.96728692 29.25399285 78.73754883 32.5847168 C79.08971466 33.2477179 79.44188049 33.91071899 79.80471802 34.59381104 C82.81637676 40.25796807 85.87421095 45.89606661 88.95629883 51.5222168 C93.28210586 59.42074918 97.56794119 67.33979477 101.83129883 75.2722168 C106.1392356 83.28627215 110.46626793 91.28911216 114.83129883 99.2722168 C119.80059247 108.36044367 124.71599703 117.47693922 129.62036133 126.6003418 C133.33390036 133.50392538 137.07058591 140.39422788 140.83129883 147.2722168 C145.77412799 156.31331363 150.66747583 165.3803818 155.54785156 174.45532227 C161.0849071 184.74984516 166.65081606 195.02858393 172.22241211 205.30444336 C175.46965644 211.29435263 178.71390475 217.28588521 181.95874023 223.27709961 C184.65357763 228.25255742 187.34908851 233.22764769 190.04614258 238.2019043 C195.67838137 248.59160371 201.29628002 258.98876615 206.89379883 269.3972168 C211.66235382 278.26349283 216.46276808 287.11149205 221.29248047 295.94458008 C225.16749765 303.03841838 229.00394965 310.15256356 232.83129883 317.2722168 C238.63539157 328.06635065 244.4768265 338.83927133 250.36254883 349.58911133 C251.37639423 351.44119925 252.3893607 353.29376849 253.40161133 355.14672852 C254.93883718 357.96040083 256.47845538 360.77275025 258.01879883 363.5847168 C258.48890381 364.44564941 258.95900879 365.30658203 259.44335938 366.19360352 C259.87430908 366.97880371 260.30525879 367.76400391 260.74926758 368.57299805 C261.12849365 369.26562744 261.50771973 369.95825684 261.8984375 370.671875 C262.73169315 372.25754313 262.73169315 372.25754313 263.83129883 373.2722168 C264.16226562 372.66039551 264.49323242 372.04857422 264.83422852 371.41821289 C270.81696895 360.36064273 276.80534504 349.3063088 282.83129883 338.2722168 C287.01356353 330.61394557 291.17850183 322.94650673 295.33129883 315.2722168 C299.48409595 307.59792663 303.64909073 299.93051904 307.83129883 292.2722168 C314.19325458 280.62102762 320.51373683 268.94752129 326.83129883 257.2722168 C333.63896155 244.69117127 340.45587256 232.11549529 347.31201172 219.56079102 C350.99934958 212.80561225 354.66861338 206.04078991 358.33129883 199.2722168 C362.48409595 191.59792663 366.64909073 183.93051904 370.83129883 176.2722168 C377.19325458 164.62102762 383.51373683 152.94752129 389.83129883 141.2722168 C396.63896155 128.69117127 403.45587256 116.11549529 410.31201172 103.56079102 C413.99934958 96.80561225 417.66861338 90.04078991 421.33129883 83.2722168 C425.48409595 75.59792663 429.64909073 67.93051904 433.83129883 60.2722168 C437.9907932 52.65458194 442.13606465 45.02940369 446.26879883 37.3972168 C446.80021484 36.41615967 447.33163086 35.43510254 447.87915039 34.42431641 C450.76000949 29.10410419 453.63592016 23.78126368 456.50708008 18.45581055 C457.10528564 17.3477002 457.70349121 16.23958984 458.31982422 15.09790039 C459.47543588 12.95709575 460.62961919 10.81551934 461.78222656 8.6730957 C462.55675171 7.23909424 462.55675171 7.23909424 463.34692383 5.77612305 C463.80357422 4.92864502 464.26022461 4.08116699 464.73071289 3.20800781 C465.83129883 1.2722168 465.83129883 1.2722168 466.83129883 0.2722168 C489.27129883 0.2722168 511.71129883 0.2722168 534.83129883 0.2722168 C534.83129883 155.7022168 534.83129883 311.1322168 534.83129883 471.2722168 C512.06129883 471.2722168 489.29129883 471.2722168 465.83129883 471.2722168 C465.33629883 311.3872168 465.33629883 311.3872168 464.83129883 148.2722168 C460.21129883 156.8522168 455.59129883 165.4322168 450.83129883 174.2722168 C444.83129883 185.2722168 444.83129883 185.2722168 441.89379883 190.6472168 C438.51473466 196.84216778 435.17249386 203.05678233 431.83129883 209.2722168 C427.01673898 218.22773227 422.1733948 227.16666489 417.29785156 236.08911133 C411.99692282 245.79211949 406.73454624 255.51590393 401.47241211 265.23999023 C398.76007745 270.25147439 396.04558622 275.26179009 393.33129883 280.2722168 C392.24795501 282.27221112 391.16462168 284.27221112 390.08129883 286.2722168 C366.24796549 330.2722168 342.41463216 374.2722168 318.58129883 418.2722168 C318.04448486 419.26326416 317.5076709 420.25431152 316.95458984 421.27539062 C315.87697412 423.26482257 314.79933758 425.25424324 313.72167969 427.24365234 C310.9256915 432.40524881 308.13012265 437.56707177 305.33520508 442.72924805 C304.75899414 443.79336914 304.1827832 444.85749023 303.58911133 445.95385742 C302.49913128 447.96680446 301.40927707 449.97981964 300.31958008 451.99291992 C296.8358201 458.42620349 293.33461379 464.8494727 289.83129883 471.2722168 C273.00129883 471.2722168 256.17129883 471.2722168 238.83129883 471.2722168 C233.8068428 462.47941875 228.84964913 453.69901214 224.08129883 444.7722168 C222.85783854 442.49069965 221.63387214 440.20945384 220.40942383 437.9284668 C219.80678711 436.80569336 219.20415039 435.68291992 218.58325195 434.52612305 C216.0191935 429.76389185 213.42721356 425.01713694 210.83129883 420.2722168 C205.86176624 411.18412175 200.94659955 402.06749238 196.04223633 392.9440918 C192.32869748 386.04050857 188.59205692 379.1501808 184.83129883 372.2722168 C179.86200519 363.18398992 174.94660062 354.06749437 170.04223633 344.9440918 C166.32869748 338.04050857 162.59205692 331.1501808 158.83129883 324.2722168 C153.86200519 315.18398992 148.94660062 306.06749437 144.04223633 296.9440918 C140.32869748 290.04050857 136.59205692 283.1501808 132.83129883 276.2722168 C128.46626751 268.28911138 124.13933858 260.28621733 119.83129883 252.2722168 C115.01673898 243.31670132 110.1733948 234.3777687 105.29785156 225.45532227 C101.64924891 218.77679043 98.01704666 212.08953685 94.39379883 205.3972168 C93.85505127 204.40222168 93.31630371 203.40722656 92.76123047 202.38208008 C90.00836861 197.29677851 87.25723036 192.21054772 84.50708008 187.1237793 C83.9539917 186.1013916 83.40090332 185.07900391 82.83105469 184.02563477 C81.8065249 182.13175566 80.78252565 180.23758936 79.75927734 178.34301758 C74.50078685 168.62413 69.15712512 158.95553732 63.83129883 149.2722168 C63.50129883 255.5322168 63.17129883 361.7922168 62.83129883 471.2722168 C39.73129883 471.2722168 16.63129883 471.2722168 -7.16870117 471.2722168 C-7.18560077 426.47798234 -7.20171612 381.68374788 -7.21104431 336.88951111 C-7.21118237 336.22707252 -7.21132043 335.56463393 -7.21146267 334.88212145 C-7.21445522 320.48728604 -7.21722546 306.09245059 -7.2197665 291.69761509 C-7.22101389 284.63890484 -7.22231044 277.58019461 -7.22363281 270.52148438 C-7.22376357 269.81903907 -7.22389433 269.11659376 -7.22402905 268.39286223 C-7.22829422 245.60400025 -7.23580837 222.81514075 -7.24499839 200.02628027 C-7.25468808 175.95478501 -7.26069477 151.88329137 -7.26278967 127.81179422 C-7.26416524 113.38295174 -7.26851768 98.95411635 -7.27661764 84.52527606 C-7.28188306 74.64548867 -7.28350594 64.76570499 -7.28220255 54.8859163 C-7.28155885 49.1765613 -7.28258028 43.46721873 -7.28790665 37.75786591 C-7.29273904 32.54023118 -7.29304088 27.32261736 -7.28960007 22.10498171 C-7.28917421 20.20860996 -7.29047129 18.31223694 -7.29358435 16.41586769 C-7.29754569 13.85569512 -7.29546622 11.29559996 -7.291749 8.73542881 C-7.29437601 7.98401347 -7.29700303 7.23259812 -7.29970965 6.45841262 C-7.27776632 -0.14182496 -6.42933061 0.1535517 0 0 Z " fill="#000000" transform="translate(640.168701171875,12.727783203125)"/>
<path d="M0 0 C18.15 0 36.3 0 55 0 C58.96 7.92 58.96 7.92 63 16 C65.02657925 20.0277261 65.02657925 20.0277261 67.05322266 24.05541992 C71.62186672 33.1510783 76.08301826 42.29129491 80.45458984 51.4831543 C84.73338165 60.47100331 89.08234963 69.42399412 93.4375 78.375 C98.31658568 88.40485348 103.18456499 98.43937528 108 108.5 C113.11884477 119.19261898 118.29424095 129.85725055 123.47799683 140.51849365 C128.92400064 151.71941738 134.35112411 162.92914898 139.76123047 174.14746094 C144.16218136 183.27080165 148.57855033 192.38658027 153 201.5 C158.58367111 213.00921666 164.15310403 224.5251563 169.7109375 236.046875 C174.12927678 245.20343332 178.56229752 254.3528123 183 263.5 C188.583635 275.00923424 194.15310398 286.52515619 199.7109375 298.046875 C204.12927678 307.20343332 208.56229752 316.3528123 213 325.5 C218.583635 337.00923424 224.15310398 348.52515619 229.7109375 360.046875 C234.12927699 369.20343376 238.56247002 378.3527283 243 387.5 C247.84274182 397.4838392 252.68332898 407.46870696 257.51025391 417.46020508 C258.32546766 419.1474812 259.14123167 420.83449142 259.95703125 422.52148438 C263.40082648 429.65383335 266.81375712 436.80051075 270.21728516 443.95214844 C270.67855301 444.92111053 271.13982086 445.89007263 271.61506653 446.88839722 C272.7434959 449.25887524 273.87180418 451.62941082 275 454 C275.00173625 453.28941392 275.0034725 452.57882783 275.00526136 451.84670883 C275.10818072 409.77706444 275.21626957 367.70743612 275.33111694 325.63782251 C275.34488732 320.59196316 275.3586143 315.54610369 275.37231445 310.50024414 C275.37504276 309.49565989 275.37777106 308.49107563 275.38058204 307.45604943 C275.4247156 291.16755127 275.46532901 274.87904612 275.50465261 258.59053571 C275.5450487 241.89006688 275.58920189 225.18961108 275.63687855 208.48916143 C275.66620293 198.1753957 275.69255983 187.86163099 275.71517897 177.54784834 C275.73094777 170.48537152 275.75034985 163.42291066 275.77266841 156.36045153 C275.78545602 152.27941643 275.79658493 148.19839368 275.80341911 144.1173439 C275.80970043 140.38743391 275.82050293 136.65756644 275.8350333 132.92767971 C275.84161683 130.92621064 275.84324482 128.92472721 275.84474558 126.92324787 C275.85022002 125.75083591 275.85569446 124.57842395 275.8613348 123.37048435 C275.86532186 121.84002156 275.86532186 121.84002156 275.86938947 120.27864033 C276 118 276 118 277 117 C299.44 117 321.88 117 345 117 C345 233.82 345 350.64 345 471 C299.13 471 253.26 471 206 471 C181.3071066 420.54060914 181.3071066 420.54060914 174.078125 405.40625 C170.34449068 397.61120002 166.54789482 389.84679033 162.75808716 382.07894897 C159.16864513 374.72096287 155.58372075 367.36077406 152 360 C151.65809631 359.29792419 151.31619263 358.59584839 150.96392822 357.87249756 C148.90699024 353.64727448 146.85749373 349.41852151 144.8125 345.1875 C144.31363281 344.16269531 143.81476563 343.13789063 143.30078125 342.08203125 C142.85734375 341.16164063 142.41390625 340.24125 141.95703125 339.29296875 C141.57522705 338.5043042 141.19342285 337.71563965 140.80004883 336.90307617 C140 335 140 335 140 333 C64.43 333.33 -11.14 333.66 -89 334 C-107.21376938 370.39544886 -107.21376938 370.39544886 -125 407 C-127.67567675 412.4239137 -130.36060201 417.84134271 -133.07421875 423.24609375 C-133.69863119 424.4934374 -134.32285654 425.74087473 -134.94689941 426.98840332 C-137.19153295 431.47255418 -139.43970208 435.95493454 -141.6875 440.4375 C-146.740625 450.523125 -151.79375 460.60875 -157 471 C-182.41 471 -207.82 471 -234 471 C-234.33 470.34 -234.66 469.68 -235 469 C-234.20596093 466.91397721 -234.20596093 466.91397721 -232.88646221 464.2779398 C-232.38952789 463.27549026 -231.89259357 462.27304072 -231.38060063 461.24021393 C-230.82032148 460.13062488 -230.26004234 459.02103583 -229.68278503 457.87782288 C-229.09858002 456.70528959 -228.51437502 455.53275631 -227.91246682 454.32469171 C-226.28348815 451.0557973 -224.64450592 447.79200586 -223.00392258 444.52892363 C-221.23856787 441.01337502 -219.48240572 437.49323897 -217.72512817 433.97364807 C-214.27578392 427.06871619 -210.81793611 420.16807596 -207.35733213 413.26878161 C-203.32256986 405.22392484 -199.29650306 397.17472769 -195.2708855 389.12529211 C-188.07836312 374.74413006 -180.87840155 360.36670553 -173.67407227 345.99145508 C-166.6979917 332.071617 -159.72631159 318.14958814 -152.76000977 304.22485352 C-152.33228672 303.36989291 -151.90456366 302.5149323 -151.46387931 301.63406379 C-149.74413289 298.19650012 -148.0243933 294.75893304 -146.30466862 291.32135851 C-139.25097653 277.22199747 -132.19359151 263.12448477 -125.13576722 249.02719188 C-123.5325519 245.82489216 -121.92949924 242.6225111 -120.32658935 239.42005849 C-116.10631261 230.98848098 -111.88485228 222.55749977 -107.65990724 214.12826032 C-105.913987 210.64492573 -104.16861604 207.16131947 -102.42494774 203.67685699 C-96.19113339 191.22055162 -89.94207692 178.77777557 -83.4144724 166.47202086 C-79.32717465 158.76074468 -75.4158161 150.96532586 -71.52099609 143.15551758 C-70.73152607 141.57629426 -69.941878 139.99715994 -69.15206909 138.41810608 C-67.04349995 134.20125036 -64.93736927 129.98318131 -62.83173323 125.76486039 C-60.61776738 121.33060358 -58.40147915 116.89750776 -56.18545532 112.46427917 C-52.00509177 104.1004654 -47.82676535 95.73563573 -43.64920199 87.37042302 C-38.88645804 77.83369041 -34.12139526 68.29811707 -29.3561542 58.76263201 C-19.5682205 39.17636068 -9.78345135 19.58851072 0 0 Z M27 103 C19.60225835 116.88798377 12.4977157 130.90682865 5.5 145 C3.5546189 148.91793414 1.60625573 152.83436588 -0.34375 156.75 C-0.97392029 158.02278809 -0.97392029 158.02278809 -1.61682129 159.32128906 C-4.5697797 165.25002585 -7.63498158 171.11399166 -10.73193359 176.96826172 C-15.9429378 186.8291881 -20.96301674 196.77982121 -25.9453125 206.7578125 C-26.85013409 208.5667797 -27.75507426 210.3756876 -28.66012573 212.18453979 C-30.53187391 215.9265799 -32.4022094 219.66932152 -34.27148438 223.41259766 C-36.67184336 228.21908845 -39.07587286 233.023733 -41.48091316 237.82788277 C-43.33870613 241.53987122 -45.1946089 245.25280213 -47.04992294 248.96603012 C-47.93689091 250.74063367 -48.82445443 252.51493967 -49.71261978 254.28894424 C-50.94201762 256.74521869 -52.16886985 259.2027474 -53.39501953 261.66064453 C-53.76268936 262.39395996 -54.13035919 263.12727539 -54.50917053 263.8828125 C-56.23776713 266.80944932 -56.23776713 266.80944932 -57 270 C-2.22 270 52.56 270 109 270 C103.93680966 258.60782174 98.82935447 247.40312024 93.1875 236.3125 C88.10562095 226.29718389 83.17248757 216.22223024 78.34358215 206.08229065 C73.45894727 195.83725188 68.46161407 185.64861692 63.45443726 175.46304321 C60.73126071 169.92329551 58.01194969 164.38165166 55.29296875 158.83984375 C54.75535416 157.74415573 54.21773956 156.64846771 53.66383362 155.51957703 C48.11954612 144.21435766 42.61516221 132.88991171 37.12646484 121.55761719 C34.12061624 115.35308946 31.1051586 109.1555663 28 103 C27.67 103 27.34 103 27 103 Z " fill="#000000" transform="translate(246,13)"/>
<path d="M0 0 C2.24599495 1.43669429 4.36835124 2.95883208 6.48828125 4.57421875 C7.51953125 5.31671875 8.55078125 6.05921875 9.61328125 6.82421875 C18.09790589 14.93994667 24.41831136 26.20948748 24.7265625 38.13671875 C25.02518753 52.72360994 23.54315061 63.6911881 14.48828125 75.57421875 C13.74578125 76.60546875 13.00328125 77.63671875 12.23828125 78.69921875 C4.20734888 87.0951935 -7.03153907 93.4896316 -18.85546875 93.8125 C-33.13265087 94.12073052 -43.8937726 92.42709372 -55.51171875 83.57421875 C-56.54296875 82.83171875 -57.57421875 82.08921875 -58.63671875 81.32421875 C-67.12134339 73.20849083 -73.44174886 61.93895002 -73.75 50.01171875 C-74.04862503 35.42482756 -72.56658811 24.4572494 -63.51171875 12.57421875 C-62.76921875 11.54296875 -62.02671875 10.51171875 -61.26171875 9.44921875 C-45.77830917 -6.73798217 -19.65600268 -11.15776202 0 0 Z M-22.51171875 12.57421875 C-22.51171875 21.15421875 -22.51171875 29.73421875 -22.51171875 38.57421875 C-21.52171875 38.90421875 -20.53171875 39.23421875 -19.51171875 39.57421875 C-19.18171875 40.56421875 -18.85171875 41.55421875 -18.51171875 42.57421875 C-10.26171875 42.57421875 -2.01171875 42.57421875 6.48828125 42.57421875 C5.1596729 31.94535195 2.35560116 25.1660074 -5.96484375 18.26953125 C-10.89132546 14.99024741 -16.5438388 12.57421875 -22.51171875 12.57421875 Z M-47.56640625 22.30078125 C-52.89317795 28.52604456 -54.70053656 34.59759389 -55.51171875 42.57421875 C-51.42862455 42.69036804 -47.34595498 42.76145332 -43.26171875 42.82421875 C-41.52341797 42.87449219 -41.52341797 42.87449219 -39.75 42.92578125 C-38.63496094 42.93867187 -37.51992188 42.9515625 -36.37109375 42.96484375 C-35.34467773 42.98579102 -34.31826172 43.00673828 -33.26074219 43.02832031 C-30.42120158 42.76336856 -30.42120158 42.76336856 -28.16992188 40.9296875 C-26.04638457 37.91321402 -26.0491994 36.16270583 -26.12109375 32.49609375 C-26.13398437 31.3359375 -26.146875 30.17578125 -26.16015625 28.98046875 C-26.19367187 27.77390625 -26.2271875 26.56734375 -26.26171875 25.32421875 C-26.28878906 23.49117187 -26.28878906 23.49117187 -26.31640625 21.62109375 C-26.36353775 18.60467797 -26.42932462 15.58984384 -26.51171875 12.57421875 C-34.68107033 12.57421875 -41.82579382 16.76592554 -47.56640625 22.30078125 Z M-55.51171875 45.57421875 C-54.46497514 55.86719755 -51.18330302 63.14466735 -43.05859375 69.87890625 C-38.13211204 73.15819009 -32.4795987 75.57421875 -26.51171875 75.57421875 C-26.3956048 71.32444829 -26.32449526 67.07508538 -26.26171875 62.82421875 C-26.22820313 61.61765625 -26.1946875 60.41109375 -26.16015625 59.16796875 C-26.14082031 57.42773438 -26.14082031 57.42773438 -26.12109375 55.65234375 C-26.10014648 54.5840332 -26.07919922 53.51572266 -26.05761719 52.41503906 C-26.31148959 49.49220843 -26.31148959 49.49220843 -28.16992188 47.21875 C-31.12397166 45.14426299 -32.78446267 45.1103972 -36.37109375 45.18359375 C-37.48613281 45.19648437 -38.60117187 45.209375 -39.75 45.22265625 C-40.90886719 45.25617188 -42.06773437 45.2896875 -43.26171875 45.32421875 C-45.02322266 45.35128906 -45.02322266 45.35128906 -46.8203125 45.37890625 C-49.71827215 45.42602755 -52.61458293 45.4918057 -55.51171875 45.57421875 Z M-20.85351562 47.21875 C-22.97705293 50.23522348 -22.9742381 51.98573167 -22.90234375 55.65234375 C-22.88945313 56.8125 -22.8765625 57.97265625 -22.86328125 59.16796875 C-22.82976563 60.37453125 -22.79625 61.58109375 -22.76171875 62.82421875 C-22.74367188 64.04625 -22.725625 65.26828125 -22.70703125 66.52734375 C-22.65989975 69.54375953 -22.59411288 72.55859366 -22.51171875 75.57421875 C-12.57339522 73.8870094 -5.25056529 70.69034897 1.203125 62.63671875 C4.46177317 57.40703415 6.48828125 51.72488729 6.48828125 45.57421875 C2.40518705 45.45806946 -1.67748252 45.38698418 -5.76171875 45.32421875 C-7.50001953 45.27394531 -7.50001953 45.27394531 -9.2734375 45.22265625 C-10.38847656 45.20976563 -11.50351562 45.196875 -12.65234375 45.18359375 C-13.67875977 45.16264648 -14.70517578 45.14169922 -15.76269531 45.12011719 C-18.60223592 45.38506894 -18.60223592 45.38506894 -20.85351562 47.21875 Z " fill="#B5732A" transform="translate(580.51171875,20.42578125)"/>
<path d="M0 0 C11.89597047 -0.94746667 21.61891139 2.85161048 31 10 C32.03125 10.7425 33.0625 11.485 34.125 12.25 C41.89931348 19.68629985 48.67919498 30.53074751 49.09765625 41.578125 C49.06510417 44.05208333 49.03255208 46.52604167 49 49 C43.39 49 37.78 49 32 49 C31.505 49.99 31.505 49.99 31 51 C30.25314941 51.01458252 29.50629883 51.02916504 28.73681641 51.04418945 C25.36567748 51.11847946 21.99554995 51.21520199 18.625 51.3125 C17.449375 51.33505859 16.27375 51.35761719 15.0625 51.38085938 C13.94101562 51.41630859 12.81953125 51.45175781 11.6640625 51.48828125 C10.10872803 51.52755737 10.10872803 51.52755737 8.52197266 51.56762695 C7.27359619 51.78165161 7.27359619 51.78165161 6 52 C5.34 52.99 4.68 53.98 4 55 C3.34 55 2.68 55 2 55 C2 63.58 2 72.16 2 81 C0.68 81 -0.64 81 -2 81 C-2 72.42 -2 63.84 -2 55 C-3.485 54.505 -3.485 54.505 -5 54 C-5.33 53.34 -5.66 52.68 -6 52 C-14.25 51.67 -22.5 51.34 -31 51 C-31 50.01 -31 49.02 -31 48 C-30.25838623 47.98541748 -29.51677246 47.97083496 -28.75268555 47.95581055 C-25.39709369 47.88140543 -22.04250506 47.78471994 -18.6875 47.6875 C-17.52025391 47.66494141 -16.35300781 47.64238281 -15.15039062 47.61914062 C-14.03212891 47.58369141 -12.91386719 47.54824219 -11.76171875 47.51171875 C-10.2142395 47.47244263 -10.2142395 47.47244263 -8.63549805 47.43237305 C-6.01950654 47.17986366 -6.01950654 47.17986366 -4.16967773 45.83959961 C-2.50155876 43.21608124 -2.580905 41.14905517 -2.5234375 38.0546875 C-2.4925 36.89582031 -2.4615625 35.73695312 -2.4296875 34.54296875 C-2.41164063 33.33253906 -2.39359375 32.12210938 -2.375 30.875 C-2.32423759 28.47647622 -2.26975965 26.07802716 -2.2109375 23.6796875 C-2.19337402 22.61476074 -2.17581055 21.54983398 -2.15771484 20.45263672 C-2 18 -2 18 -1 17 C-0.76298761 14.14122091 -0.57780818 11.30116703 -0.4375 8.4375 C-0.39431641 7.63119141 -0.35113281 6.82488281 -0.30664062 5.99414062 C-0.20024738 3.99631195 -0.09959112 1.9981793 0 0 Z M2 18 C2 26.58 2 35.16 2 44 C2.99 44.33 3.98 44.66 5 45 C5.33 45.99 5.66 46.98 6 48 C14.25 48 22.5 48 31 48 C29.67139165 37.3711332 26.86731991 30.59178865 18.546875 23.6953125 C13.62039329 20.41602866 7.96787995 18 2 18 Z " fill="#187094" transform="translate(556,15)"/>
<path d="M0 0 C1.5675 0.020625 3.135 0.04125 4.75 0.0625 C4.75 5.6725 4.75 11.2825 4.75 17.0625 C3.47125 17.454375 2.1925 17.84625 0.875 18.25 C-8.20826778 21.3348834 -15.94136564 24.71834334 -21.25 33.0625 C-24.08705201 39.07393642 -25.30388636 44.43970453 -26.25 51.0625 C-32.19 50.4025 -38.13 49.7425 -44.25 49.0625 C-44.95652183 37.05162884 -41.50278627 27.58059222 -34.25 18.0625 C-33.5075 17.03125 -32.765 16 -32 14.9375 C-23.70290189 6.26326106 -12.2044221 -0.1605845 0 0 Z " fill="#7E9439" transform="translate(551.25,14.9375)"/>
<path d="M0 0 C5.78591511 -0.10477512 11.29309366 0.00749455 17 1 C17.15855469 1.53367187 17.31710937 2.06734375 17.48046875 2.6171875 C20.55140991 12.42383938 23.99430835 21.30500107 33 27 C36.59598693 28.60886372 40.24749244 29.8164737 44 31 C46.475 31.99 46.475 31.99 49 33 C49 38.61 49 44.22 49 50 C36.98912884 50.70652183 27.51809222 47.25278627 18 40 C16.96875 39.2575 15.9375 38.515 14.875 37.75 C7.01728095 30.2339209 0.29161577 19.35187557 -0.09765625 8.203125 C-0.08605469 7.22859375 -0.07445312 6.2540625 -0.0625 5.25 C-0.05347656 4.26515625 -0.04445313 3.2803125 -0.03515625 2.265625 C-0.02355469 1.51796875 -0.01195312 0.7703125 0 0 Z " fill="#B6A631" transform="translate(507,64)"/>
<path d="M0 0 C1.32 0 2.64 0 4 0 C4.01458252 0.77190674 4.02916504 1.54381348 4.04418945 2.33911133 C4.11858033 5.83075093 4.2152709 9.3214249 4.3125 12.8125 C4.34633789 14.63491211 4.34633789 14.63491211 4.38085938 16.49414062 C4.41630859 17.65751953 4.45175781 18.82089844 4.48828125 20.01953125 C4.51446533 21.09307861 4.54064941 22.16662598 4.56762695 23.27270508 C4.80991176 25.97105439 4.80991176 25.97105439 6.171875 27.84179688 C8.73952411 29.46852329 10.73458653 29.43488798 13.76171875 29.51171875 C14.87998047 29.54716797 15.99824219 29.58261719 17.15039062 29.61914062 C18.31763672 29.64169922 19.48488281 29.66425781 20.6875 29.6875 C21.86634766 29.72166016 23.04519531 29.75582031 24.25976562 29.79101562 C27.17308225 29.87357925 30.08609466 29.94270322 33 30 C33 30.99 33 31.98 33 33 C32.25314941 33.01458252 31.50629883 33.02916504 30.73681641 33.04418945 C27.36567748 33.11847946 23.99554995 33.21520199 20.625 33.3125 C19.449375 33.33505859 18.27375 33.35761719 17.0625 33.38085938 C15.94101562 33.41630859 14.81953125 33.45175781 13.6640625 33.48828125 C12.10872803 33.52755737 12.10872803 33.52755737 10.52197266 33.56762695 C9.27359619 33.78165161 9.27359619 33.78165161 8 34 C7.34 34.99 6.68 35.98 6 37 C5.34 37 4.68 37 4 37 C4 45.58 4 54.16 4 63 C2.68 63 1.36 63 0 63 C0 54.42 0 45.84 0 37 C-1.485 36.505 -1.485 36.505 -3 36 C-3.33 35.34 -3.66 34.68 -4 34 C-12.25 33.67 -20.5 33.34 -29 33 C-29 32.01 -29 31.02 -29 30 C-28.25838623 29.98541748 -27.51677246 29.97083496 -26.75268555 29.95581055 C-23.39709369 29.88140543 -20.04250506 29.78471994 -16.6875 29.6875 C-15.52025391 29.66494141 -14.35300781 29.64238281 -13.15039062 29.61914062 C-12.03212891 29.58369141 -10.91386719 29.54824219 -9.76171875 29.51171875 C-8.2142395 29.47244263 -8.2142395 29.47244263 -6.63549805 29.43237305 C-4.02008002 29.17982747 -4.02008002 29.17982747 -2.171875 27.84179688 C-0.49877136 25.21223565 -0.56393773 23.1214471 -0.48828125 20.01953125 C-0.45283203 18.85615234 -0.41738281 17.69277344 -0.38085938 16.49414062 C-0.35830078 15.27919922 -0.33574219 14.06425781 -0.3125 12.8125 C-0.27833984 11.58595703 -0.24417969 10.35941406 -0.20898438 9.09570312 C-0.1264059 6.06389322 -0.05728631 3.03237621 0 0 Z " fill="#060707" transform="translate(554,33)"/>
<path d="M0 0 C2.625 0.375 2.625 0.375 5 1 C5.625 3.375 5.625 3.375 6 6 C5.34 6.66 4.68 7.32 4 8 C1.375 7.625 1.375 7.625 -1 7 C-1.625 4.625 -1.625 4.625 -2 2 C-1.34 1.34 -0.68 0.68 0 0 Z " fill="#767941" transform="translate(554,61)"/>
</svg>
