<svg width="178px" height="38px" viewBox="0 0 178 38" version="1.1" xmlns="http://www.w3.org/2000/svg" xmlns:xlink="http://www.w3.org/1999/xlink" xmlns:sketch="http://www.bohemiancoding.com/sketch/ns">
 <!-- Generator: Sketch 3.3.2 (12043) - http://www.bohemiancoding.com/sketch -->
 <title>
  enb-logo-reversed copy
 </title>
 <desc>
  Created with Sketch.
 </desc>
 <defs>
 </defs>
 <g id="Page-1" stroke="none" stroke-width="1" fill="none" fill-rule="evenodd" sketch:type="MSPage">
  <g id="enb-logo-reversed" sketch:type="MSLayerGroup">
   <g id="Page-1" sketch:type="MSShapeGroup">
    <g id="enb-logo-reversed">
     <g id="Page-1">
      <g id="enb-logo">
       <g id="Group">
        <path d="M2.32900697,14.5869384 C2.69674491,14.5869384 3.18706217,13.9740418 4.29027599,12.870828 C11.8901935,5.76122776 22.9223317,1.59353108 30.6448285,1.59353108 C36.283477,1.59353108 38.612484,4.41285531 38.612484,7.96765542 C38.612484,10.541821 37.3866908,13.3611452 35.3028425,16.1804695 L39.1028012,16.1804695 C40.573753,13.4837246 41.3092289,10.7869796 41.3092289,8.21281405 C41.3092289,4.04511737 38.612484,0 31.2577251,0 C16.3030488,0 1.83868971,12.0127728 1.83868971,13.9740418 C1.96126903,14.4643591 2.08384834,14.5869384 2.32900697,14.5869384" id="Shape" fill="#FFB81C">
        </path>
        <path d="M29.2964561,22.5545938 C22.5545938,28.4384009 13.4837246,33.0964148 7.59991748,33.0964148 C4.90317257,33.0964148 3.06448285,31.8706217 3.06448285,29.664194 C3.06448285,28.3158216 3.67737942,27.0900284 4.53543462,25.8642353 C5.14833119,26.4771319 6.49670365,26.9674491 8.09023473,26.9674491 C14.9546763,26.9674491 22.5545938,21.5739593 22.5545938,17.8965799 C22.5545938,16.793366 21.5739593,15.6901522 19.4901109,15.6901522 C16.0578902,15.6901522 9.92892444,18.5094764 5.63864845,22.3094352 C5.14833119,21.083642 6.00638639,18.9997937 7.59991748,17.2836833 C11.0321383,13.6063039 17.5288419,10.2966624 21.083642,10.2966624 C21.45138,10.2966624 21.5739593,10.4192417 21.5739593,10.6644003 C21.5739593,10.909559 21.083642,11.1547176 21.083642,11.5224555 C21.083642,11.7676142 21.2062213,11.8901935 21.5739593,11.8901935 C22.1868559,11.8901935 23.0449111,10.909559 23.0449111,10.0515038 C23.0449111,9.43860719 22.5545938,8.94828993 21.5739593,8.94828993 C17.8965799,8.94828993 10.6644003,12.1353521 6.37412433,16.3030488 C3.79995874,18.7546351 2.32900697,21.9416972 3.55480011,24.3932835 C1.34837246,26.7222905 0,29.2964561 0,31.993201 C0,35.1802632 2.45158628,37.5092701 6.86444159,37.5092701 C13.9740418,37.5092701 21.8191179,33.8318907 28.1932423,28.8061388 L29.2964561,22.5545938 L29.2964561,22.5545938 Z M18.9997937,17.0385247 C19.9804282,17.0385247 20.3481661,17.5288419 20.3481661,18.0191592 C20.3481661,20.1030075 13.9740418,24.3932835 8.7031313,24.3932835 C7.59991748,24.3932835 6.61928296,24.0255456 6.37412433,23.6578076 C10.0515038,19.9804282 15.9353108,17.0385247 18.9997937,17.0385247 L18.9997937,17.0385247 L18.9997937,17.0385247 Z" id="Shape_1_" fill="#FFB81C">
        </path>
        <path d="M82.1281405,26.3545525 L82.1281405,26.3545525 C84.8248854,25.4964973 86.0506785,23.1674904 86.0506785,20.9610627 C86.0506785,18.3868971 84.0894095,16.3030488 80.2894508,16.3030488 L69.2573125,16.3030488 L65.5799331,36.8963736 L77.7152852,36.8963736 C81.147506,36.8963736 84.2119888,34.5673666 84.8248854,31.1351458 L84.8248854,30.2770906 C84.9474647,28.3158216 83.8442509,26.8448698 82.1281405,26.3545525 L82.1281405,26.3545525 L82.1281405,26.3545525 Z M76.3669127,31.993201 L72.8121126,31.993201 L73.4250092,28.5609802 L76.85723,28.5609802 C77.7152852,28.5609802 78.5733404,28.9287181 78.5733404,29.9093526 C78.5733404,31.1351458 77.5927058,31.993201 76.3669127,31.993201 L76.3669127,31.993201 L76.3669127,31.993201 Z M77.9604438,24.1481249 L74.1604851,24.1481249 L74.7733816,20.7159041 L78.450761,20.7159041 C79.3088162,20.7159041 80.0442921,21.083642 80.0442921,22.0642765 C80.0442921,23.2900697 79.0636576,24.1481249 77.9604438,24.1481249 L77.9604438,24.1481249 L77.9604438,24.1481249 Z M61.1670778,16.1804695 L59.4509674,26.4771319 L53.5671603,16.1804695 L48.2962498,16.1804695 L44.6188703,36.7737942 L50.3800981,36.7737942 L52.2187878,25.9868146 L58.2251742,36.7737942 L63.1283468,36.7737942 L66.8057262,16.1804695 L61.1670778,16.1804695 L61.1670778,16.1804695 Z M34.5673666,28.9287181 L42.1672841,28.9287181 L43.0253393,24.0255456 L35.4254218,24.0255456 L35.915739,21.083642 L45.4769255,21.083642 L46.3349807,16.1804695 L30.3996699,16.1804695 L26.7222905,36.7737942 L42.6576013,36.7737942 L43.5156565,31.8706217 L33.95447,31.8706217 L34.5673666,28.9287181 L34.5673666,28.9287181 Z M143.172639,29.4190354 L146.114542,29.4190354 C145.869384,31.3803044 145.011329,32.3609389 142.92748,32.3609389 C141.456529,32.3609389 140.598473,31.625463 140.598473,30.1545113 L140.598473,29.4190354 L141.701687,23.2900697 C142.069425,21.5739593 143.417798,20.5933248 145.133908,20.5933248 C146.359701,20.5933248 147.462915,21.2062213 147.462915,22.5545938 C147.462915,22.7997524 147.462915,23.1674904 147.340336,23.412649 L153.224143,23.412649 C153.346722,22.7997524 153.469301,22.0642765 153.469301,21.45138 C153.591881,17.161104 149.056446,15.5675729 145.624225,15.5675729 C140.230735,15.5675729 136.185618,18.3868971 135.327563,23.412649 L134.224349,29.4190354 C134.10177,29.9093526 134.10177,30.5222492 134.10177,31.0125665 C134.10177,35.5480011 138.024308,37.3866908 141.946846,37.3866908 C146.237122,37.3866908 151.140294,35.0576838 151.99835,30.3996699 C152.366087,28.6835595 152.611246,26.9674491 152.856405,25.2513387 L143.785535,25.2513387 L143.172639,29.4190354 L143.172639,29.4190354 Z M176.636792,17.7740005 C176.636792,17.5288419 176.391633,17.161104 176.023895,17.161104 L175.288419,17.161104 L175.288419,18.8772144 L175.533578,18.8772144 L175.533578,18.2643178 L176.023895,18.2643178 L176.391633,18.8772144 L176.759371,18.8772144 L176.391633,18.2643178 C176.391633,18.2643178 176.636792,18.0191592 176.636792,17.7740005 L176.636792,17.7740005 L176.636792,17.7740005 Z M175.901316,18.1417385 L175.533578,18.1417385 L175.533578,17.5288419 L175.901316,17.5288419 C176.146474,17.5288419 176.269054,17.6514212 176.269054,17.8965799 C176.269054,18.0191592 176.146474,18.1417385 175.901316,18.1417385 L175.901316,18.1417385 L175.901316,18.1417385 Z M153.101563,36.7737942 L169.036874,36.7737942 L169.894929,31.8706217 L160.333743,31.8706217 L160.82406,28.9287181 L168.423978,28.9287181 L169.282033,24.0255456 L161.682115,24.0255456 L162.172433,21.083642 L171.733619,21.083642 L172.591674,16.1804695 L156.656363,16.1804695 L153.101563,36.7737942 L153.101563,36.7737942 Z M105.41821,22.0642765 C105.41821,18.1417385 102.476307,16.1804695 98.7989272,16.1804695 L88.9925821,16.1804695 L85.3152026,36.7737942 L91.689327,36.7737942 L92.9151201,29.9093526 L94.6312305,29.9093526 L96.9602375,36.7737942 L103.456941,36.7737942 L100.760196,29.2964561 C103.7021,28.4384009 105.41821,25.373918 105.41821,22.0642765 L105.41821,22.0642765 L105.41821,22.0642765 Z M96.4699202,25.6190767 L93.650596,25.6190767 L94.3860719,20.9610627 L96.9602375,20.9610627 C98.0634513,20.9610627 99.1666651,21.5739593 99.1666651,22.7997524 C99.2892444,24.3932835 98.0634513,25.6190767 96.4699202,25.6190767 L96.4699202,25.6190767 L96.4699202,25.6190767 Z M175.778736,16.3030488 C174.552943,16.3030488 173.817467,17.161104 173.817467,18.1417385 C173.817467,19.122373 174.552943,19.9804282 175.778736,19.9804282 C177.00453,19.9804282 177.740005,19.122373 177.740005,18.1417385 C177.740005,17.161104 177.00453,16.3030488 175.778736,16.3030488 L175.778736,16.3030488 L175.778736,16.3030488 Z M175.778736,19.8578489 C174.675523,19.8578489 174.062626,19.122373 174.062626,18.1417385 C174.062626,17.161104 174.675523,16.4256281 175.778736,16.4256281 C176.88195,16.4256281 177.494847,17.161104 177.494847,18.1417385 C177.494847,19.122373 176.88195,19.8578489 175.778736,19.8578489 L175.778736,19.8578489 L175.778736,19.8578489 Z M108.482693,16.1804695 L104.805314,36.7737942 L111.179438,36.7737942 L114.856817,16.1804695 L108.482693,16.1804695 L108.482693,16.1804695 Z M126.134114,16.1804695 L117.063245,16.1804695 L113.385866,36.7737942 L122.579314,36.7737942 C127.482487,36.7737942 131.405025,35.0576838 132.385659,29.9093526 C132.753397,27.8255043 133.243714,25.6190767 133.488873,23.5352283 C133.611452,23.0449111 133.611452,22.5545938 133.611452,22.0642765 C133.611452,17.8965799 129.811494,16.1804695 126.134114,16.1804695 L126.134114,16.1804695 L126.134114,16.1804695 Z M126.992169,23.7803869 L126.011535,29.1738768 C125.766376,30.7674078 124.540583,31.8706217 122.947052,31.8706217 L120.618045,31.8706217 L122.456735,21.2062213 L124.663162,21.2062213 C126.011535,21.2062213 127.114749,21.8191179 127.114749,23.2900697 C127.114749,23.412649 126.992169,23.5352283 126.992169,23.7803869 L126.992169,23.7803869 L126.992169,23.7803869 Z" id="Shape_2_" fill="#FFFFFF">
        </path>
       </g>
      </g>
     </g>
    </g>
   </g>
  </g>
 </g>
</svg>